<svg t="1597152381537" class="icon" viewBox="0 0 1240 1024" version="1.1" xmlns="http://www.w3.org/2000/svg" p-id="3620" width="200" height="200"><path d="M506.635219 65.870534C528.853163 1.848096 608.782279 0 690.588048 0c110.934693 0 211.784414 58.029386 264.730518 151.376574C1116.682199 166.512191 1240.223108 300.231904 1240.223108 459.180367c0 135.110884-118.196526 222.228398-220.588367 217.33278 24.376096-34.799681 37.002709-78.639936 37.002709-131.659474 0-166.165418-126.384446-306.18008-292.925195-326.966055-54.565737-89.059442-150.597355-145.677259-257.077036-152.017084z" fill="#1196db" p-id="3621"></path><path d="M272.298327 758.820717C118.498422 751.252908 0 729.026805 0 590.264606c0-111.008127 75.637291-209.40596 189.093227-247.249084C206.741928 196.681434 335.329402 85.673307 486.603984 85.673307c110.934693 0 211.784414 58.029386 264.730518 151.376573C912.698135 252.185498 1036.239044 385.905211 1036.239044 544.853673 1036.239044 713.891187 900.09192 758.820717 733.68988 758.820717H272.294247z m216.386295-624.191235c-130.94961 0-241.749673 98.467187-251.822407 227.230088l-2.517163 17.673179-17.624223 5.050645C121.023745 409.832542 53.035857 493.147793 53.035857 589.089657c0 113.619124 98.210167 113.198916 221.600127 120.774885h460.828558c138.5011 0 251.818327-22.307697 251.818327-166.218454 0-136.342948-110.800064-249.953912-251.818327-257.529881h-15.11114l-7.55149-12.622534C672.51098 187.64902 586.890709 134.629482 488.680542 134.629482z" fill="#1196db" p-id="3622"></path><path d="M611.33208 543.274837h-180.297435c-7.894183 0-13.156972-5.262789-13.156972-13.161052s5.262789-13.161052 13.156972-13.161052h180.297435c7.894183 0 13.161052 5.262789 13.161051 13.161052 0 7.894183-5.262789 13.161052-13.161051 13.161052z m0 68.432573h-180.297435c-7.894183 0-13.156972-5.262789-13.156972-13.161051 0-7.894183 5.262789-13.161052 13.156972-13.161052h180.297435c7.894183 0 13.161052 5.262789 13.161051 13.161052s-5.262789 13.161052-13.161051 13.161051z m0 67.118917h-180.297435c-7.894183 0-13.156972-5.262789-13.156972-13.161052s5.262789-13.161052 13.156972-13.161052h180.297435c7.894183 0 13.161052 5.262789 13.161051 13.161052 0 7.894183-5.262789 13.161052-13.161051 13.161052zM314.135458 409.893737v524.177849c0 48.548207 39.046629 87.594837 87.305179 87.594836h233.357769c48.491092 0 87.305179-39.046629 87.30518-87.594836V409.889657C722.103586 361.34145 683.056956 322.294821 634.798406 322.294821H401.440637C352.949546 322.294821 314.135458 361.284335 314.135458 409.889657z" fill="#1196db" p-id="3623"></path></svg>