<svg t="1615526911735" class="icon" viewBox="0 0 1687 1024" version="1.1" xmlns="http://www.w3.org/2000/svg" p-id="2154" width="200" height="200"><path d="M1434.2656 1024H251.846776a277.684706 277.684706 0 0 1 0-552.96 376.048941 376.048941 0 0 1-17.468235-114.447059A341.052235 341.052235 0 0 1 559.046776 0.602353a325.571765 325.571765 0 0 1 298.164706 215.04 288.527059 288.527059 0 0 1 217.449412-101.797647 317.379765 317.379765 0 0 1 301.778824 331.294118 327.740235 327.740235 0 0 1-1.807059 34.334117 219.437176 219.437176 0 0 1 59.632941-8.432941 277.624471 277.624471 0 0 1 0 552.96zM646.387953 496.338824l-84.931765 286.117647a215.642353 215.642353 0 0 0-8.432941 40.96h-1.807059a215.762824 215.762824 0 0 0-7.830588-40.357647L458.453835 496.338824H368.100894l134.927059 405.985882h94.569412l136.131764-405.985882h-87.341176z m597.534118-4.216471h-123.482353l-88.545883 247.567059c-6.023529 16.263529-11.444706 35.538824-17.468235 57.825882h-1.807059a256.903529 256.903529 0 0 0-15.058823-57.825882l-87.94353-247.567059h-127.09647v410.202353h78.908235v-231.905882c0-34.936471-1.204706-69.270588-3.614118-103.604706h2.409412c6.023529 30.117647 10.24 48.790588 12.649412 55.41647l102.4 280.094118h69.872941l101.195294-282.50353c3.011765-9.035294 7.228235-26.503529 12.649412-53.007058h1.807059c-1.807059 34.936471-3.011765 63.849412-3.011765 86.738823v248.771765h86.136471V492.122353z" p-id="2155" fill=""></path></svg>